<svg xmlns="http://www.w3.org/2000/svg" viewBox="0 0 228 228" width="40" height="40">
  <path d="M200.49,170.37l-37.22-25.26a7.53,7.53,0,0,0-10,1.3A52.64,52.64,0,1,1,153,78.17a7.55,7.55,0,0,0,10.31,1L199,52a7.57,7.57,0,0,0,1.25-10.83A112.87,112.87,0,0,0,112.93,0C50.56,0,0,50.34,0,112.45a111.6,111.6,0,0,0,20.8,65L11.27,218a7.28,7.28,0,0,0,9.49,8.55l40.46-14.11a113.33,113.33,0,0,0,141-31.14A7.58,7.58,0,0,0,200.49,170.37Zm-54.67,5.29c4.4-3.13,7.36-5.44,8.9-6.67a7.12,7.12,0,1,1,6.25,3.7,7.23,7.23,0,0,1-2.87-.6,48.91,48.91,0,0,1-16,9.73,113.21,113.21,0,0,1-24.54,5.75s0,6-8,5.55l-2.15-1.75s5.23-1.23,6-3.69-.2-4.21,6.47-4.73S139,180.49,145.82,175.66Zm-75.16-4.82c1.33-1.54,3.9,1.44,13.24,6.67s18,5.65,19.82,4.72,4.41-4.62,4.41-4.62,1.54-.82,6.06-1,3.8,2,3.49,2.67a3.1,3.1,0,0,1-2,1.23,23.92,23.92,0,0,1-5.85.2c-2.26-.1-4.11,6.17-4.11,6.17-17.66.3-35.32-12.12-35.32-12.12S69.32,172.38,70.66,170.84ZM161,64.27a7.09,7.09,0,0,1-6.88-8.92c-4-2.88-18.57-12.62-36.13-13.33a7.13,7.13,0,1,1,.41-4.7c6.12.32,23.71,2.29,38.46,14A7,7,0,0,1,161,50a7.12,7.12,0,1,1,0,14.24Zm-133.1,92.4a93.69,93.69,0,0,1-10.95-42.3c-1-52.62,41.53-96.11,95-97.13a97.6,97.6,0,0,1,48.22,11.61,7.11,7.11,0,1,1-2.38,5.3,92.52,92.52,0,0,0-57.08-10.22c-2.7,6-8.65,19.25-9,20.52-.41,1.64-2.88,1.84-2.88,1.84-29,10.6-39.24,33.35-41.55,39.51a7.11,7.11,0,1,1-5.41-2.5,7,7,0,0,1,1.21.11C57.2,49,88.22,42,88.22,42l5.2-16.72C52.3,34.51,22,71.11,22.79,114.26A88.05,88.05,0,0,0,33,153.85a2.54,2.54,0,0,1-1.08,3.44l-.76.41A2.46,2.46,0,0,1,27.87,156.67ZM170,192.41a7.11,7.11,0,0,1-4-1.26c-6.11,4.93-18.71,12.31-41.68,15.45-36,4.93-59.69-13-59.69-13s-16.29,6.84-20.26,8.76S32.43,207,30.65,206.19,30,201.4,30,201.4l5.2-19.17,12.32-13-.14-20.12a62.61,62.61,0,0,1-8.89-25.83,7.13,7.13,0,1,1,4.37-.55c.34,10.35,9.45,26,9.45,26l-.14,21.36s-10.26,12-12.45,14.24S36,195.92,35.58,197.7s1.78,2.88,1.78,2.88l27.24-11.5s16.57,15.06,50.65,14c26.26-.84,42-11.18,47.89-15.89a7.11,7.11,0,1,1,6.86,5.26Z" fill="#7BD3C9"/>
</svg>
